<?xml version="1.0" encoding="UTF-8"?>
<svg version="1.1" xmlns="http://www.w3.org/2000/svg" width="533" height="181">
<path d="M0 0 C1.51970186 1.4800359 3.02209589 2.9782249 4.5 4.5 C5.06074219 5.04011719 5.62148438 5.58023438 6.19921875 6.13671875 C18.26826667 18.71260333 21.01690142 36.14883876 20.91992188 52.83740234 C20.50977006 68.94111931 15.84743631 85.82272364 4.4453125 97.76171875 C-7.0486227 108.03240382 -21.95158695 114.86320493 -37.5 115.5 C-38.64726562 115.5515625 -39.79453125 115.603125 -40.9765625 115.65625 C-60.36860853 116.24403376 -78.25855657 111.74115158 -93.2578125 98.8125 C-106.85954715 84.78423012 -111.87139674 67.17446104 -111.80493164 48.00463867 C-111.35900025 28.91493444 -104.82402707 12.85576156 -91.0078125 -0.3984375 C-66.52726457 -20.91328919 -24.12116679 -21.22372934 0 0 Z M-60.25390625 25.5234375 C-67.72774435 36.07685709 -67.51862192 48.03993772 -66.5 60.5 C-65.13700221 67.30025383 -62.52552916 72.71378175 -57.5 77.5 C-51.96518929 80.98933719 -47.02247924 81.82031482 -40.5625 81 C-35.48742623 79.49225964 -31.7970536 76.60121301 -28.5 72.5 C-22.44041457 60.6078453 -22.19160438 47.22604452 -25.5 34.5 C-27.8464715 27.85542445 -31.29204451 24.01062891 -37.359375 20.390625 C-45.20192641 17.12766566 -54.74019445 19.16240696 -60.25390625 25.5234375 Z " fill="#FFFFFF" transform="translate(293.5,65.5)"/>
<path d="M0 0 C0.99386719 -0.02449219 1.98773438 -0.04898438 3.01171875 -0.07421875 C9.29774247 -0.09913034 14.33084761 0.58598819 19.5 4.375 C23.56148888 9.47789629 24.62121066 13.23116809 24.65771484 19.6472168 C24.66797699 20.9425383 24.67823914 22.2378598 24.68881226 23.57243347 C24.69225018 24.26482809 24.6956881 24.95722271 24.69923019 25.67059898 C24.71104964 27.84484739 24.7305125 30.01889988 24.75234985 32.19306946 C24.81384626 38.37465817 24.8678838 44.55622816 24.90136719 50.73803711 C24.92241113 54.52180647 24.9577952 58.30522017 25.00212479 62.08878517 C25.01621276 63.52512209 25.02499083 64.96152196 25.02817917 66.39792442 C25.00731004 77.26551384 25.00731004 77.26551384 28.5 87.375 C33.7030854 91.43340661 37.94928744 92.20915918 44.5 92.375 C49.12 91.715 53.74 91.055 58.5 90.375 C58.5 61.335 58.5 32.295 58.5 2.375 C65.16122938 0.47179161 70.15431847 0.00872435 76.9375 0 C78.43506836 -0.03673828 78.43506836 -0.03673828 79.96289062 -0.07421875 C86.26522296 -0.09908002 91.31852072 0.57167583 96.5 4.375 C101.06041826 10.10475627 101.6533317 14.63614856 101.67700195 21.74267578 C101.68357315 22.59672501 101.69014435 23.45077423 101.69691467 24.33070374 C101.71664309 27.16057423 101.72831118 29.99039159 101.73828125 32.8203125 C101.74235678 33.78822598 101.7464323 34.75613945 101.75063133 35.75338364 C101.77149322 40.87953223 101.78579268 46.00565407 101.79516602 51.13183594 C101.80621198 56.4143405 101.84059069 61.69642169 101.88033772 66.97877693 C101.90654935 71.0504329 101.91486205 75.12198886 101.91844749 79.19372177 C101.92330412 81.14007288 101.93489163 83.08641979 101.95348549 85.03268814 C101.9779668 87.76577992 101.97689528 90.49778802 101.9699707 93.23095703 C101.98278076 94.02610214 101.99559082 94.82124725 102.00878906 95.64048767 C101.94933448 102.12120914 100.40643265 108.4525813 95.71497059 113.16984749 C84.26903773 122.54022923 67.12462984 126.83334704 52.5 127.375 C51.2109375 127.4265625 49.921875 127.478125 48.59375 127.53125 C29.23437056 128.04559356 9.67666692 125.5000551 -5.5 112.375 C-20.0607159 96.86406463 -19.66660157 78.32380067 -19.59765625 58.234375 C-19.59578657 56.61484827 -19.59436527 54.99532096 -19.59336853 53.37579346 C-19.58958663 49.15417871 -19.57979434 44.93259945 -19.56866455 40.71099854 C-19.55835636 36.38676432 -19.55385094 32.06252426 -19.54882812 27.73828125 C-19.53816731 19.28383804 -19.52114421 10.82942346 -19.5 2.375 C-12.83483635 0.58937024 -6.901917 0.0089519 0 0 Z " fill="#FFFFFF" transform="translate(342.5,53.625)"/>
<path d="M0 0 C9.5895736 10.5990024 11.25065056 22.92133773 11.07421875 36.73046875 C11.06997391 38.00227493 11.06572906 39.27408112 11.06135559 40.58442688 C11.04751412 43.92677699 11.02067643 47.26848341 10.98724365 50.61065674 C10.95627058 54.03660595 10.94279276 57.4626223 10.92773438 60.88867188 C10.89482691 67.58220529 10.84474988 74.27544059 10.78125 80.96875 C10.02199219 81.09427246 9.26273437 81.21979492 8.48046875 81.34912109 C7.48660156 81.52008301 6.49273437 81.69104492 5.46875 81.8671875 C4.48261719 82.03395996 3.49648437 82.20073242 2.48046875 82.37255859 C-1.08981526 83.16114701 -2.85709981 84.16429039 -5.21875 86.96875 C-8.32573606 92.47325287 -8.6930608 96.87493204 -7.21875 102.96875 C-5.26498497 106.42040155 -3.16882191 109.31368528 -0.21875 111.96875 C-6.22046115 114.96960557 -16.00465724 113.33015908 -22.3515625 111.65625 C-26.46281969 110.14248166 -28.62735129 107.96774105 -30.82652283 104.25289917 C-32.36573328 100.62202856 -32.6023664 98.10105283 -32.61938477 94.17236328 C-32.62985336 93.19546036 -32.62985336 93.19546036 -32.64053345 92.19882202 C-32.66040414 90.06210116 -32.66000967 87.92586724 -32.66015625 85.7890625 C-32.67194205 84.2922131 -32.68530921 82.7953754 -32.70018005 81.29855347 C-32.73628595 77.36599623 -32.75653899 73.43354259 -32.77172852 69.50085449 C-32.7965943 63.21459373 -32.836537 56.92856211 -32.89362907 50.64251328 C-32.90983099 48.45791885 -32.91372429 46.27354451 -32.91664124 44.08889771 C-32.50321115 32.39060376 -32.50321115 32.39060376 -37.65625 22.53125 C-41.44345102 20.22198108 -44.35687977 19.78762164 -48.71875 19.71875 C-50.15734375 19.68007812 -50.15734375 19.68007812 -51.625 19.640625 C-56.5938091 20.09429887 -61.4050828 21.65593167 -66.21875 22.96875 C-66.21875 52.00875 -66.21875 81.04875 -66.21875 110.96875 C-93.5277201 115.52024502 -93.5277201 115.52024502 -103.02734375 109.8984375 C-107.54579238 106.45271408 -108.8400762 103.22126873 -109.75263977 97.79293823 C-110.22784431 93.89413602 -110.36658787 90.07638241 -110.36401367 86.15673828 C-110.36737228 85.40939423 -110.3707309 84.66205017 -110.37419128 83.89205933 C-110.38362819 81.44104311 -110.38564064 78.99009572 -110.38671875 76.5390625 C-110.38993611 74.82184827 -110.39330054 73.10463432 -110.39680481 71.38742065 C-110.40277773 67.79489507 -110.40464657 64.20239348 -110.40405273 60.60986328 C-110.40395116 56.02486451 -110.4176071 51.44002074 -110.43482494 46.85505867 C-110.44598661 43.31012272 -110.44797067 39.76522378 -110.44744301 36.22027206 C-110.4486167 34.53072449 -110.45300387 32.84117577 -110.46077538 31.15164566 C-110.55608863 8.29322547 -110.55608863 8.29322547 -103.30859375 0.80859375 C-92.9405951 -8.31912095 -77.80874937 -13.48603141 -64.21875 -15.03125 C-63.25195312 -15.15242188 -62.28515625 -15.27359375 -61.2890625 -15.3984375 C-39.94825838 -17.58041498 -16.33700131 -15.26572254 0 0 Z " fill="#FFFFFF" transform="translate(163.21875,68.03125)"/>
<path d="M0 0 C1.27617187 -0.02416992 1.27617187 -0.02416992 2.578125 -0.04882812 C9.61072277 -0.05422122 15.14975336 1.14383408 20.875 5.5 C25.62056712 11.78089767 25.26633702 19.27285771 25.125 26.8125 C25.08375 29.9475 25.0425 33.0825 25 36.3125 C35.89 36.3125 46.78 36.3125 58 36.3125 C62.06017438 45.78624023 63.60185834 53.59591711 60.2421875 63.48828125 C58.23460602 66.43652198 56.3262606 68.1198482 53 69.3125 C48.19825785 69.79945314 43.44488963 69.68819421 38.625 69.5625 C37.31660156 69.54445313 36.00820313 69.52640625 34.66015625 69.5078125 C31.43935311 69.46079348 28.22005526 69.39508181 25 69.3125 C25.01942322 75.20306711 25.07114993 81.09214091 25.15258789 86.98217773 C25.17575811 88.98502461 25.19016132 90.98799317 25.19555664 92.9909668 C25.20485333 95.87365454 25.24585906 98.75443119 25.29296875 101.63671875 C25.2890361 102.52961105 25.28510345 103.42250336 25.28105164 104.342453 C25.38623931 108.84325054 25.53206482 110.72405109 28.41918945 114.35473633 C34.93056431 119.29416637 45.08836225 117.80248134 52.9375 116.8125 C53.948125 116.6475 54.95875 116.4825 56 116.3125 C59.98322774 122.9940433 62.4766144 128.30140043 60.50390625 136.33203125 C58.59622248 141.96885956 56.0750158 146.67840841 50.69921875 149.53515625 C35.80330973 155.84161849 17.63785666 154.74399702 2.70703125 149.05859375 C-6.11799 145.03526108 -11.610621 140.10878392 -15.375 131.125 C-17.22259057 126.15257147 -18.12585893 121.50090262 -18.12025452 116.19352722 C-18.12162918 115.18536957 -18.12300385 114.17721191 -18.12442017 113.13850403 C-18.12082489 112.04374252 -18.11722961 110.94898102 -18.11352539 109.82104492 C-18.11367142 108.65963989 -18.11381744 107.49823486 -18.1139679 106.30163574 C-18.11327161 102.46539437 -18.10549243 98.62920164 -18.09765625 94.79296875 C-18.09579106 92.13210467 -18.09431844 89.47124328 -18.09336853 86.81037903 C-18.09026339 80.52420298 -18.08206102 74.23804437 -18.07201904 67.95187598 C-18.06083253 60.79349479 -18.05534106 53.63511275 -18.05032361 46.47672498 C-18.03987772 31.75530775 -18.0222941 17.03390418 -18 2.3125 C-11.79251501 0.72223688 -6.41282791 -0.02429101 0 0 Z " fill="#FFFFFF" transform="translate(471,27.6875)"/>
<path d="M0 0 C1.35351562 -0.02416992 1.35351562 -0.02416992 2.734375 -0.04882812 C9.04070662 -0.05342458 14.15664091 0.54153612 19.1171875 4.8125 C22.24069659 8.94845687 23.50105916 11.75014577 23.49525452 16.88725281 C23.49662918 17.8253479 23.49800385 18.76344299 23.49942017 19.72996521 C23.49402725 21.27068443 23.49402725 21.27068443 23.48852539 22.8425293 C23.48867142 23.92561371 23.48881744 25.00869812 23.4889679 26.12460327 C23.48827007 29.71199533 23.48048372 33.29933574 23.47265625 36.88671875 C23.47079161 39.3710782 23.46936792 41.85543802 23.46836853 44.33979797 C23.4649378 50.21521603 23.4570527 56.09061496 23.44701904 61.96602517 C23.43474734 69.31133149 23.42937462 76.6566389 23.42382812 84.00195312 C23.41309721 97.1054782 23.39621684 110.20898792 23.375 123.3125 C21.45776867 123.64270004 19.54002509 123.96992675 17.62207031 124.29589844 C16.55418274 124.47844177 15.48629517 124.66098511 14.38604736 124.84906006 C4.80044178 126.32441131 -4.39428562 125.86142861 -13.375 122.1875 C-17.23113679 118.97405267 -19.26564927 114.79475955 -19.98517609 109.82453918 C-20.11499665 106.97753551 -20.1200907 104.15633319 -20.07910156 101.30664062 C-20.07968567 100.23257965 -20.08026978 99.15851868 -20.08087158 98.0519104 C-20.07809877 94.52385435 -20.04704346 90.99665733 -20.015625 87.46875 C-20.00815979 85.0139614 -20.00246818 82.55916682 -19.99847412 80.10437012 C-19.98324004 73.65986527 -19.94397679 67.21572402 -19.8996582 60.7713623 C-19.85865782 54.18877073 -19.84045289 47.6061201 -19.8203125 41.0234375 C-19.7774809 28.11963702 -19.71003069 15.2160879 -19.625 2.3125 C-18.18461701 1.98276677 -16.74363266 1.65565968 -15.30239868 1.32966614 C-14.50001581 1.1472276 -13.69763294 0.96478907 -12.87093544 0.77682209 C-8.59371377 -0.10744576 -4.34938088 -0.0156678 0 0 Z " fill="#FFFFFF" transform="translate(21.625,55.6875)"/>
<path d="M0 0 C4.90928891 3.38503388 8.12610985 7.66407332 9.9375 13.3359375 C10.74659188 21.21047128 10.98871261 28.87289527 5.9375 35.3359375 C0.26576833 41.13657217 -5.5570618 43.45626934 -13.5625 43.7109375 C-21.51503343 43.45795234 -27.48113613 41.17099973 -33.0625 35.3359375 C-37.38243761 28.80236727 -38.06262817 22.00018498 -37.0625 14.3359375 C-34.92532176 6.37554888 -30.97649912 2.65238596 -24 -1.4765625 C-16.42096652 -4.4006242 -7.14684502 -3.70479834 0 0 Z " fill="#FFFFFF" transform="translate(37.0625,2.6640625)"/>
<path d="M0 0 C3.68806096 2.81814977 5.35504189 5.50929986 6.15234375 10.02734375 C6.29583309 14.50241747 5.64810413 17.84868093 2.83984375 21.40234375 C-0.65814297 24.81898194 -3.25289044 26.31518095 -8.16015625 26.40234375 C-13.14903859 26.27084109 -15.87238272 25.04855163 -19.84765625 22.02734375 C-22.8348463 17.69110012 -23.40560613 14.23487595 -22.84765625 9.02734375 C-21.10771344 4.35697094 -19.00593254 1.76572082 -14.84765625 -0.97265625 C-9.98348605 -2.55376333 -4.57407584 -2.4079173 0 0 Z " fill="#FFFFFF" transform="translate(179.84765625,152.97265625)"/>
</svg>
